# xmcd
#
# Track frame offsets:
#	150
#	19638
#	34158
#	45421
#	69487
#	79413
#	98436
#	112612
#	129055
#	149498
#	172243
#	191018
#	212589
#
# Disc length: 3043 seconds
#
# Revision: 0
# Processed by: cddbd v1.5.2PL0 Copyright (c) Steve Scherf et al.
# Submitted via: EasyCDDAExtractor 2010.4.0.0
#
DISCID=a60be10d
DTITLE=Various Artist - The Key
DYEAR=2003
DGENRE=Country
TTITLE0=Vince Gill - Don't Come Cryin' To Me
TTITLE1=Vince Gill - If You Ever Have Forever In Mind
TTITLE2=Vince Gill - I Never Really Knew You
TTITLE3=Vince Gill - Kindly Keep It Country
TTITLE4=Vince Gill - All Those Years
TTITLE5=Vince Gill - I'll Take Texas
TTITLE6=Vince Gill and Patty Loveless - My Kind Of Woman - My Kind Of Man
TTITLE7=Vince Gill - There's Not Much Love Here Anymore
TTITLE8=Vince Gill - Let Her In
TTITLE9=Vince Gill - The Hills Of Caroline
TTITLE10=Vince Gill - Live To Tell It All
TTITLE11=Vince Gill - What They All Call Love
TTITLE12=Vince Gill - The Key To Life
EXTD=
EXTT0=
EXTT1=
EXTT2=
EXTT3=
EXTT4=
EXTT5=
EXTT6=
EXTT7=
EXTT8=
EXTT9=
EXTT10=
EXTT11=
EXTT12=
PLAYORDER=
